<svg width="345" height="300" viewBox="0 0 345 300" fill="none" xmlns="http://www.w3.org/2000/svg">
<g clip-path="url(#clip0_274_76)">
<path d="M79.6515 85.9915L60.5104 145.381L88.2958 134.246L122.256 108.263L114.229 69.9067L79.6515 85.9915Z" fill="white"/>
<path d="M64.0069 74.0456V141.569C62.8459 143.009 61.6434 144.491 60.3857 145.986L42.6805 135.739L21.3541 123.4L0 111.075V37.0298L21.3402 49.3684L42.6667 61.707L64.0069 74.0456Z" fill="#78A8DA"/>
<path d="M128 37.0298V111.075L106.674 123.414L88.0562 134.174C93.875 124.868 99.5556 114.468 104.835 102.919L112.7 107.35C114.621 108.43 116.984 106.921 116.805 104.719L114.718 78.3662C114.552 76.2752 112.354 74.9873 110.461 75.8736L82.9008 88.6692C80.8414 89.6247 80.7446 92.5189 82.7349 93.6129L90.309 97.7812C90.309 97.7812 85.7895 114.454 63.9931 141.583V74.0595L85.3195 61.7209L106.66 49.3822L127.986 37.0436L128 37.0298Z" fill="#3C6AB3"/>
<path d="M128 37.0158V37.0297L106.674 49.3683L85.3333 61.7069L64.0069 74.0455L42.6667 61.7069L21.3402 49.3683L0 37.0297V37.0158L21.3402 24.6772L42.6667 12.3386L64.0069 0L85.3333 12.3386L106.674 24.6772L128 37.0158Z" fill="#5A87C5"/>
</g>
<path d="M28.128 211.112C28.128 217.4 23.52 221 16.368 221H3.744V186.536H15.696C22.656 186.536 26.832 189.752 26.832 195.56C26.832 198.824 24.864 201.608 21.552 203.048C25.824 204.248 28.128 207.176 28.128 211.112ZM15.36 190.76H8.592V201.128H15.36C19.536 201.128 21.792 199.16 21.792 195.944C21.792 192.728 19.536 190.76 15.36 190.76ZM16.032 205.352H8.592V216.776H16.032C20.544 216.776 23.088 214.616 23.088 210.968C23.088 207.464 20.544 205.352 16.032 205.352ZM49.7168 210.536V195.56H54.5648V221H50.0528V216.968C48.7088 219.608 45.7328 221.48 42.2768 221.48C37.1408 221.48 33.5888 218.456 33.5888 211.928V195.56H38.4368V210.968C38.4368 215.384 40.6448 217.208 43.8128 217.208C47.0768 217.208 49.7168 214.52 49.7168 210.536ZM67.2015 189.656C67.2015 191.48 65.7615 192.872 63.6975 192.872C61.6335 192.872 60.1455 191.48 60.1455 189.656C60.1455 187.784 61.6335 186.44 63.6975 186.44C65.7615 186.44 67.2015 187.784 67.2015 189.656ZM66.1455 221H61.2975V195.56H66.1455V221ZM77.7716 221H72.8756V186.536H77.7716V221ZM82.6766 208.28C82.6766 200.552 87.0926 195.08 93.9566 195.08C97.3646 195.08 100.341 196.808 102.117 199.928V186.536H106.965V221H102.453V216.44C100.629 219.656 97.5566 221.48 93.9566 221.48C87.0926 221.48 82.6766 215.912 82.6766 208.28ZM87.7166 208.28C87.7166 213.944 90.6926 217.16 94.9166 217.16C99.0446 217.16 102.117 213.8 102.117 208.184C102.117 202.472 98.9486 199.352 94.9166 199.352C90.6926 199.352 87.7166 202.52 87.7166 208.28ZM119.608 189.656C119.608 191.48 118.168 192.872 116.104 192.872C114.04 192.872 112.552 191.48 112.552 189.656C112.552 187.784 114.04 186.44 116.104 186.44C118.168 186.44 119.608 187.784 119.608 189.656ZM118.552 221H113.704V195.56H118.552V221ZM130.13 206.648V221H125.282V195.56H129.794V199.784C131.522 196.952 134.402 195.08 137.906 195.08C143.138 195.08 146.594 198.44 146.594 204.536V221H141.746V206.168C141.746 201.8 139.826 199.352 136.226 199.352C132.914 199.352 130.13 202.136 130.13 206.648ZM163.208 230.792C156.536 230.792 152.216 227.24 151.928 221.48H156.632C156.92 225.032 159.224 226.952 163.16 226.952C167.528 226.952 169.832 224.6 169.832 220.232V215.624C168.392 218.696 165.512 220.472 162.056 220.472C155.72 220.472 151.208 215.24 151.208 207.752C151.208 200.168 155.528 195.08 161.912 195.08C165.56 195.08 168.44 196.856 170.168 200.072V195.56H174.68V220.136C174.68 226.808 170.408 230.792 163.208 230.792ZM156.104 207.752C156.104 213.032 158.696 216.248 162.92 216.248C167.048 216.248 169.832 212.936 169.832 207.896C169.832 202.616 167.096 199.256 162.92 199.256C158.744 199.256 156.104 202.52 156.104 207.752ZM216.191 211.112C216.191 217.4 211.583 221 204.431 221H191.807V186.536H203.759C210.719 186.536 214.895 189.752 214.895 195.56C214.895 198.824 212.927 201.608 209.615 203.048C213.887 204.248 216.191 207.176 216.191 211.112ZM203.423 190.76H196.655V201.128H203.423C207.599 201.128 209.855 199.16 209.855 195.944C209.855 192.728 207.599 190.76 203.423 190.76ZM204.095 205.352H196.655V216.776H204.095C208.607 216.776 211.151 214.616 211.151 210.968C211.151 207.464 208.607 205.352 204.095 205.352ZM226.787 221H221.891V186.536H226.787V221ZM244.172 221.48C236.972 221.48 231.692 215.816 231.692 208.28C231.692 200.744 236.972 195.08 244.172 195.08C251.372 195.08 256.652 200.744 256.652 208.28C256.652 215.816 251.372 221.48 244.172 221.48ZM244.172 217.208C248.348 217.208 251.66 213.848 251.66 208.28C251.66 202.712 248.348 199.4 244.172 199.4C239.996 199.4 236.732 202.712 236.732 208.28C236.732 213.848 239.996 217.208 244.172 217.208ZM271.626 221.528C264.666 221.528 259.77 216.056 259.77 208.28C259.77 200.6 264.762 195.08 271.626 195.08C277.914 195.08 282.474 199.256 283.386 205.88H278.298C277.77 201.8 275.226 199.352 271.674 199.352C267.498 199.352 264.762 202.904 264.762 208.28C264.762 213.704 267.498 217.208 271.674 217.208C275.274 217.208 277.77 214.808 278.346 210.68H283.386C282.522 217.4 278.01 221.528 271.626 221.528ZM293.114 221H288.266V186.536H293.114V206.936L304.01 195.56H309.722L297.962 207.896L310.826 221H304.586L293.114 208.952V221ZM9.024 286H3.744V251.536H24.672V256.144H9.024V267.376H22.368V271.984H9.024V286ZM34.083 272.992V286H29.235V260.56H33.747V265.936C35.523 262.432 39.363 260.224 43.539 260.224V265.264C38.067 264.976 34.083 267.376 34.083 272.992ZM62.7836 286V282.064C61.1996 284.896 58.3676 286.48 54.6236 286.48C49.3436 286.48 45.8876 283.456 45.8876 278.8C45.8876 273.808 49.8716 271.216 57.4556 271.216C58.9436 271.216 60.1436 271.264 62.2076 271.504V269.632C62.2076 265.984 60.2396 263.92 56.8796 263.92C53.3276 263.92 51.1676 266.032 51.0236 269.584H46.6076C46.8476 263.872 50.9276 260.08 56.8796 260.08C63.1676 260.08 66.8156 263.632 66.8156 269.68V286H62.7836ZM50.4956 278.656C50.4956 281.296 52.4636 283.024 55.5836 283.024C59.6636 283.024 62.2076 280.48 62.2076 276.592V274.528C60.3356 274.288 58.9916 274.24 57.7436 274.24C52.8956 274.24 50.4956 275.68 50.4956 278.656ZM78.1455 286H73.2975V260.56H77.8095V264.784C79.5375 261.856 82.2735 260.08 85.7775 260.08C89.5215 260.08 92.3535 262 93.5055 265.36C95.2815 262.096 98.2095 260.08 102.098 260.08C107.33 260.08 110.69 263.488 110.69 269.536V286H105.842V271.072C105.842 266.848 103.97 264.352 100.418 264.352C97.1055 264.352 94.4175 267.136 94.4175 271.408V286H89.5695V271.072C89.5695 266.848 87.6975 264.352 84.1455 264.352C80.7855 264.352 78.1455 267.136 78.1455 271.408V286ZM127.637 286.48C120.293 286.48 115.349 281.152 115.349 273.136C115.349 265.6 120.485 260.08 127.493 260.08C135.077 260.08 140.117 266.224 139.253 274.48H120.293C120.677 279.664 123.269 282.688 127.541 282.688C131.141 282.688 133.637 280.72 134.453 277.408H139.253C138.005 283.072 133.637 286.48 127.637 286.48ZM127.397 263.728C123.509 263.728 120.868 266.512 120.341 271.264H134.117C133.877 266.56 131.333 263.728 127.397 263.728ZM164.868 286L159.108 267.088L153.3 286H148.404L141.06 260.56H145.812L150.948 279.088L156.708 260.56H161.508L167.172 279.136L172.308 260.56H177.108L169.716 286H164.868ZM191.157 286.48C183.957 286.48 178.677 280.816 178.677 273.28C178.677 265.744 183.957 260.08 191.157 260.08C198.357 260.08 203.637 265.744 203.637 273.28C203.637 280.816 198.357 286.48 191.157 286.48ZM191.157 282.208C195.333 282.208 198.645 278.848 198.645 273.28C198.645 267.712 195.333 264.4 191.157 264.4C186.981 264.4 183.717 267.712 183.717 273.28C183.717 278.848 186.981 282.208 191.157 282.208ZM213.427 272.992V286H208.579V260.56H213.091V265.936C214.867 262.432 218.707 260.224 222.883 260.224V265.264C217.411 264.976 213.427 267.376 213.427 272.992ZM231.567 286H226.719V251.536H231.567V271.936L242.463 260.56H248.175L236.415 272.896L249.279 286H243.039L231.567 273.952V286Z" fill="black"/>
<defs>
<clipPath id="clip0_274_76">
<rect width="128" height="146" fill="white"/>
</clipPath>
</defs>
</svg>
