<svg width="649" height="172" viewBox="0 0 649 172" fill="none" xmlns="http://www.w3.org/2000/svg">
<g clip-path="url(#clip0_274_85)">
<path d="M79.6515 98.9915L60.5104 158.381L88.2958 147.246L122.256 121.263L114.229 82.9067L79.6515 98.9915Z" fill="white"/>
<path d="M64.0069 87.0456V154.569C62.8459 156.009 61.6434 157.491 60.3857 158.986L42.6805 148.739L21.3541 136.4L0 124.075V50.0298L21.3402 62.3684L42.6667 74.707L64.0069 87.0456Z" fill="#78A8DA"/>
<path d="M128 50.0298V124.075L106.674 136.414L88.0562 147.174C93.875 137.868 99.5556 127.468 104.835 115.919L112.7 120.35C114.621 121.43 116.984 119.921 116.805 117.719L114.718 91.3662C114.552 89.2752 112.354 87.9873 110.461 88.8736L82.9008 101.669C80.8414 102.625 80.7446 105.519 82.7349 106.613L90.309 110.781C90.309 110.781 85.7895 127.454 63.9931 154.583V87.0595L85.3195 74.7209L106.66 62.3822L127.986 50.0436L128 50.0298Z" fill="#3C6AB3"/>
<path d="M128 50.0158V50.0297L106.674 62.3683L85.3333 74.7069L64.0069 87.0455L42.6667 74.7069L21.3402 62.3683L0 50.0297V50.0158L21.3402 37.6772L42.6667 25.3386L64.0069 13L85.3333 25.3386L106.674 37.6772L128 50.0158Z" fill="#5A87C5"/>
</g>
<path d="M189.504 54.816C189.504 63.2 183.36 68 173.824 68H156.992V22.048H172.928C182.208 22.048 187.776 26.336 187.776 34.08C187.776 38.432 185.152 42.144 180.736 44.064C186.432 45.664 189.504 49.568 189.504 54.816ZM172.48 27.68H163.456V41.504H172.48C178.048 41.504 181.056 38.88 181.056 34.592C181.056 30.304 178.048 27.68 172.48 27.68ZM173.376 47.136H163.456V62.368H173.376C179.392 62.368 182.784 59.488 182.784 54.624C182.784 49.952 179.392 47.136 173.376 47.136ZM218.289 54.048V34.08H224.753V68H218.737V62.624C216.945 66.144 212.977 68.64 208.369 68.64C201.521 68.64 196.785 64.608 196.785 55.904V34.08H203.249V54.624C203.249 60.512 206.193 62.944 210.417 62.944C214.769 62.944 218.289 59.36 218.289 54.048ZM241.602 26.208C241.602 28.64 239.682 30.496 236.93 30.496C234.178 30.496 232.194 28.64 232.194 26.208C232.194 23.712 234.178 21.92 236.93 21.92C239.682 21.92 241.602 23.712 241.602 26.208ZM240.194 68H233.73V34.08H240.194V68ZM255.696 68H249.168V22.048H255.696V68ZM262.236 51.04C262.236 40.736 268.124 33.44 277.276 33.44C281.82 33.44 285.788 35.744 288.156 39.904V22.048H294.62V68H288.604V61.92C286.172 66.208 282.076 68.64 277.276 68.64C268.124 68.64 262.236 61.216 262.236 51.04ZM268.956 51.04C268.956 58.592 272.924 62.88 278.556 62.88C284.06 62.88 288.156 58.4 288.156 50.912C288.156 43.296 283.932 39.136 278.556 39.136C272.924 39.136 268.956 43.36 268.956 51.04ZM311.477 26.208C311.477 28.64 309.557 30.496 306.805 30.496C304.053 30.496 302.069 28.64 302.069 26.208C302.069 23.712 304.053 21.92 306.805 21.92C309.557 21.92 311.477 23.712 311.477 26.208ZM310.069 68H303.605V34.08H310.069V68ZM325.507 48.864V68H319.043V34.08H325.059V39.712C327.363 35.936 331.203 33.44 335.875 33.44C342.851 33.44 347.458 37.92 347.458 46.048V68H340.995V48.224C340.995 42.4 338.435 39.136 333.635 39.136C329.219 39.136 325.507 42.848 325.507 48.864ZM369.611 81.056C360.715 81.056 354.955 76.32 354.571 68.64H360.843C361.227 73.376 364.299 75.936 369.547 75.936C375.371 75.936 378.443 72.8 378.443 66.976V60.832C376.523 64.928 372.683 67.296 368.075 67.296C359.627 67.296 353.611 60.32 353.611 50.336C353.611 40.224 359.371 33.44 367.883 33.44C372.747 33.44 376.587 35.808 378.891 40.096V34.08H384.907V66.848C384.907 75.744 379.211 81.056 369.611 81.056ZM360.139 50.336C360.139 57.376 363.595 61.664 369.227 61.664C374.731 61.664 378.443 57.248 378.443 50.528C378.443 43.488 374.795 39.008 369.227 39.008C363.659 39.008 360.139 43.36 360.139 50.336ZM440.254 54.816C440.254 63.2 434.11 68 424.574 68H407.742V22.048H423.678C432.958 22.048 438.526 26.336 438.526 34.08C438.526 38.432 435.902 42.144 431.486 44.064C437.182 45.664 440.254 49.568 440.254 54.816ZM423.23 27.68H414.206V41.504H423.23C428.798 41.504 431.806 38.88 431.806 34.592C431.806 30.304 428.798 27.68 423.23 27.68ZM424.126 47.136H414.206V62.368H424.126C430.142 62.368 433.534 59.488 433.534 54.624C433.534 49.952 430.142 47.136 424.126 47.136ZM454.383 68H447.855V22.048H454.383V68ZM477.563 68.64C467.963 68.64 460.923 61.088 460.923 51.04C460.923 40.992 467.963 33.44 477.563 33.44C487.163 33.44 494.203 40.992 494.203 51.04C494.203 61.088 487.163 68.64 477.563 68.64ZM477.563 62.944C483.131 62.944 487.547 58.464 487.547 51.04C487.547 43.616 483.131 39.2 477.563 39.2C471.995 39.2 467.643 43.616 467.643 51.04C467.643 58.464 471.995 62.944 477.563 62.944ZM514.169 68.704C504.889 68.704 498.361 61.408 498.361 51.04C498.361 40.8 505.017 33.44 514.169 33.44C522.553 33.44 528.632 39.008 529.849 47.84H523.065C522.361 42.4 518.969 39.136 514.233 39.136C508.665 39.136 505.017 43.872 505.017 51.04C505.017 58.272 508.665 62.944 514.233 62.944C519.033 62.944 522.361 59.744 523.129 54.24H529.849C528.697 63.2 522.681 68.704 514.169 68.704ZM542.819 68H536.355V22.048H542.819V49.248L557.347 34.08H564.963L549.283 50.528L566.435 68H558.115L542.819 51.936V68ZM164.032 154H156.992V108.048H184.896V114.192H164.032V129.168H181.824V135.312H164.032V154ZM197.444 136.656V154H190.98V120.08H196.996V127.248C199.364 122.576 204.484 119.632 210.052 119.632V126.352C202.756 125.968 197.444 129.168 197.444 136.656ZM235.712 154V148.752C233.6 152.528 229.824 154.64 224.832 154.64C217.792 154.64 213.184 150.608 213.184 144.4C213.184 137.744 218.496 134.288 228.608 134.288C230.592 134.288 232.192 134.352 234.944 134.672V132.176C234.944 127.312 232.32 124.56 227.84 124.56C223.104 124.56 220.224 127.376 220.032 132.112H214.144C214.464 124.496 219.904 119.44 227.84 119.44C236.224 119.44 241.088 124.176 241.088 132.24V154H235.712ZM219.328 144.208C219.328 147.728 221.952 150.032 226.112 150.032C231.552 150.032 234.944 146.64 234.944 141.456V138.704C232.448 138.384 230.656 138.32 228.992 138.32C222.528 138.32 219.328 140.24 219.328 144.208ZM256.194 154H249.73V120.08H255.746V125.712C258.05 121.808 261.698 119.44 266.37 119.44C271.362 119.44 275.138 122 276.674 126.48C279.042 122.128 282.946 119.44 288.13 119.44C295.106 119.44 299.586 123.984 299.586 132.048V154H293.122V134.096C293.122 128.464 290.626 125.136 285.89 125.136C281.474 125.136 277.89 128.848 277.89 134.544V154H271.426V134.096C271.426 128.464 268.93 125.136 264.194 125.136C259.714 125.136 256.194 128.848 256.194 134.544V154ZM322.182 154.64C312.39 154.64 305.798 147.536 305.798 136.848C305.798 126.8 312.646 119.44 321.99 119.44C332.102 119.44 338.822 127.632 337.67 138.64H312.39C312.902 145.552 316.358 149.584 322.054 149.584C326.854 149.584 330.182 146.96 331.27 142.544H337.67C336.006 150.096 330.182 154.64 322.182 154.64ZM321.862 124.304C316.678 124.304 313.158 128.016 312.454 134.352H330.822C330.502 128.08 327.11 124.304 321.862 124.304ZM371.825 154L364.145 128.784L356.401 154H349.873L340.081 120.08H346.417L353.265 144.784L360.945 120.08H367.345L374.897 144.848L381.745 120.08H388.145L378.289 154H371.825ZM406.876 154.64C397.276 154.64 390.236 147.088 390.236 137.04C390.236 126.992 397.276 119.44 406.876 119.44C416.476 119.44 423.516 126.992 423.516 137.04C423.516 147.088 416.476 154.64 406.876 154.64ZM406.876 148.944C412.444 148.944 416.86 144.464 416.86 137.04C416.86 129.616 412.444 125.2 406.876 125.2C401.308 125.2 396.956 129.616 396.956 137.04C396.956 144.464 401.308 148.944 406.876 148.944ZM436.569 136.656V154H430.105V120.08H436.121V127.248C438.489 122.576 443.609 119.632 449.177 119.632V126.352C441.881 125.968 436.569 129.168 436.569 136.656ZM460.757 154H454.293V108.048H460.757V135.248L475.285 120.08H482.901L467.221 136.528L484.373 154H476.053L460.757 137.936V154Z" fill="black"/>
<defs>
<clipPath id="clip0_274_85">
<rect width="128" height="146" fill="white" transform="translate(0 13)"/>
</clipPath>
</defs>
</svg>
